<?xml version="1.0" encoding="UTF-8" standalone="no"?>
<!-- Created with Inkscape (http://www.inkscape.org/) -->

<svg
   width="123.58656"
   height="46.09565"
   viewBox="0 0 32.69894 12.19614"
   version="1.1"
   id="svg1"
   xml:space="preserve"
   inkscape:version="1.4.3 (0d15f75, 2025-12-25)"
   sodipodi:docname="Nivo - Wordmark - black.svg"
   inkscape:export-filename="Nivo - Wordmark.png"
   inkscape:export-xdpi="48.102966"
   inkscape:export-ydpi="48.102966"
   xmlns:inkscape="http://www.inkscape.org/namespaces/inkscape"
   xmlns:sodipodi="http://sodipodi.sourceforge.net/DTD/sodipodi-0.dtd"
   xmlns="http://www.w3.org/2000/svg"
   xmlns:svg="http://www.w3.org/2000/svg"><sodipodi:namedview
     id="namedview1"
     pagecolor="#ffffff"
     bordercolor="#000000"
     borderopacity="0.25"
     inkscape:showpageshadow="2"
     inkscape:pageopacity="0.0"
     inkscape:pagecheckerboard="0"
     inkscape:deskcolor="#d1d1d1"
     inkscape:document-units="px"
     showgrid="false"
     inkscape:zoom="1.9007869"
     inkscape:cx="74.442853"
     inkscape:cy="29.198433"
     inkscape:window-width="1144"
     inkscape:window-height="718"
     inkscape:window-x="0"
     inkscape:window-y="33"
     inkscape:window-maximized="0"
     inkscape:current-layer="layer1" /><defs
     id="defs1"><style
       id="style1">
      .cls-1 {
        fill: #2E2A2B;
      }
    </style></defs><g
     inkscape:label="Layer 1"
     inkscape:groupmode="layer"
     id="layer1"
     transform="translate(-20.938626,-163.79086)"><g
       id="g1"><path
         class="cls-1"
         d="m 21.228102,166.51719 c 0,-0.76579 -0.01711,-1.63554 -0.05132,-2.58817 h 0.613162 c 2.690811,3.13423 5.415832,6.11452 8.157959,8.95796 v -4.65004 c 0,-1.12369 -0.06842,-2.50396 -0.203949,-4.08687 0.23816,0.0342 0.47632,0.0513 0.69869,0.0513 0.23816,0 0.459214,-0.0171 0.664479,-0.0513 -0.169738,1.1408 -0.289476,4.24082 -0.289476,9.26455 0,0.51053 0.0171,1.36316 0.05132,2.57238 h -0.561846 c -0.953955,-1.27764 -2.060543,-2.48686 -3.235552,-3.73029 l -4.939513,-5.2632 v 4.63293 c 0,1.53291 0.06842,2.91187 0.221055,4.17241 -0.23816,-0.0513 -0.47632,-0.0855 -0.715795,-0.0855 -0.239476,0 -0.459214,0.0342 -0.69869,0.0855 0.186844,-1.60133 0.289476,-4.70136 0.289476,-9.28166 z"
         id="path3"
         style="fill:#2E2A2B;stroke-width:0.13158" /><path
         class="cls-1"
         d="m 34.443995,163.79086 c 0.613163,0 0.988166,0.35789 0.988166,0.97106 0,0.54474 -0.357898,0.90264 -0.919744,0.90264 -0.630268,0 -1.022377,-0.37501 -1.022377,-0.91975 0,-0.54474 0.392109,-0.95395 0.953955,-0.95395 z m -0.800006,7.06847 c 0,-1.20922 -0.01711,-2.28159 -0.119738,-3.23555 0.289476,0.0513 0.561847,0.0684 0.851323,0.0684 0.289476,0 0.578951,-0.0171 0.868427,-0.0684 -0.119737,1.03948 -0.119737,2.04344 -0.119737,3.0145 0,2.14607 0.03421,3.86582 0.119737,5.14346 -0.289476,-0.0513 -0.578951,-0.0855 -0.868427,-0.0855 -0.289476,0 -0.561847,0.0342 -0.851323,0.0855 0.08553,-1.00527 0.119738,-2.63949 0.119738,-4.92241 z"
         id="path4"
         style="fill:#2E2A2B;stroke-width:0.13158" /><path
         class="cls-1"
         d="m 36.590065,167.62378 c 0.375003,0.0513 0.7329,0.0684 1.072376,0.0684 0.357898,0 0.69869,-0.0171 1.039482,-0.0684 0.357898,1.20922 0.69869,2.2487 1.039482,3.13424 l 1.328958,3.35529 1.413169,-3.78161 c 0.306581,-0.81711 0.596057,-1.71975 0.868428,-2.70792 0.255265,0.0513 0.493425,0.0684 0.7329,0.0684 0.239476,0 0.493425,-0.0171 0.732901,-0.0684 -1.396064,2.57107 -2.538178,5.3132 -3.593449,8.15796 -0.203949,-0.0684 -0.42632,-0.10263 -0.630269,-0.10263 -0.203949,0 -0.409213,0.0342 -0.613162,0.10263 -0.357898,-1.37896 -1.464485,-4.10398 -3.389501,-8.15796 z"
         id="path5"
         style="fill:#2E2A2B;stroke-width:0.13158" /><path
         class="cls-1"
         d="m 49.44806,175.98569 c -2.605283,0 -4.189506,-1.60133 -4.189506,-4.27503 0,-2.67371 1.651328,-4.29214 4.189506,-4.29214 2.538178,0 4.189507,1.63554 4.189507,4.29214 0,2.6566 -1.652645,4.27503 -4.189507,4.27503 z m 0.01711,-7.93691 c -1.515802,0 -2.452651,1.31186 -2.452651,3.66188 0,2.35001 0.953955,3.64476 2.452651,3.64476 1.498696,0 2.41844,-1.31185 2.41844,-3.64476 0,-2.33292 -0.919744,-3.66188 -2.41844,-3.66188 z"
         id="path6"
         style="fill:#2E2A2B;stroke-width:0.13158" /></g></g></svg>
