<?xml version="1.0" encoding="UTF-8"?>
<svg xmlns="http://www.w3.org/2000/svg" viewBox="242 -6 154 186" aria-hidden="true">
  <defs>
    <style>.n { fill: #596152; }</style>
  </defs>
  <g class="n">
    <path d="M391.86,172.56c-6.42-1-14.02-1.73-22.54-1.7-8.1.03-15.35.74-21.52,1.7-1.87-2.02-3.75-4.04-5.66-6.07-1.9-2.02-3.81-4.05-5.74-6.09l-95.15-101.36v89.22c0,3.15.11,13.13.22,19.53.04,2.03.06,3.69.09,4.67-3.23-.66-6.44-1.11-9.67-1.11-2.36,0-4.59.24-6.88.63-.35.06-.7.11-1.05.18-.65.11-1.27.24-1.94.39,2.66-22.63,4.1-66.44,4.1-131.21,0-10.83-.24-27.87-.72-41.36h9.28c51.83,60.36,104.33,117.78,157.18,172.56Z"/>
    <path d="M246.78,0c6.42,1,14.02,1.73,22.54,1.7,8.1-.03,15.35-.74,21.52-1.7,1.87,2.02,3.75,4.04,5.66,6.07,1.9,2.02,3.81,4.05,5.74,6.09l95.15,101.36V24.29c0-3.15-.11-13.13-.22-19.53-.04-2.03-.06-3.69-.09-4.67,3.23.66,6.44,1.11,9.67,1.11,2.36,0,4.59-.24,6.88-.63.35-.06.7-.11,1.05-.18.65-.11,1.27-.24,1.94-.39-2.66,22.63-4.1,66.44-4.1,131.21,0,10.83.24,27.87.72,41.36h-9.28C352.13,112.21,299.63,54.78,246.78,0Z"/>
  </g>
</svg>
