<?xml version="1.0" encoding="UTF-8" standalone="no"?>
<!-- Nivo Wordmark (black) - from Nivo Branding/SVG/Nivo - Wordmark.svg -->
<svg xmlns="http://www.w3.org/2000/svg" viewBox="0 0 169.33332 33.866664" width="640" height="128" aria-hidden="true">
  <defs>
    <style>.cls-1 { fill: #2E2A2B; }</style>
  </defs>
  <g transform="matrix(0.26458333,0,0,0.26458333,20.912168,95.774415)">
    <path class="cls-1" d="m 2.2,228.29 c 0,-5.82 -0.13,-12.43 -0.39,-19.67 h 4.66 c 20.45,23.82 41.16,46.47 62,68.08 v -35.34 c 0,-8.54 -0.52,-19.03 -1.55,-31.06 1.81,0.26 3.62,0.39 5.31,0.39 1.81,0 3.49,-0.13 5.05,-0.39 -1.29,8.67 -2.2,32.23 -2.2,70.41 0,3.88 0.13,10.36 0.39,19.55 H 71.2 c -7.25,-9.71 -15.66,-18.9 -24.59,-28.35 l -37.54,-40 v 35.21 c 0,11.65 0.52,22.13 1.68,31.71 -1.81,-0.39 -3.62,-0.65 -5.44,-0.65 -1.82,0 -3.49,0.26 -5.31,0.65 1.42,-12.17 2.2,-35.73 2.2,-70.54 z"/>
    <path class="cls-1" d="m 102.64,207.57 c 4.66,0 7.51,2.72 7.51,7.38 0,4.14 -2.72,6.86 -6.99,6.86 -4.79,0 -7.77,-2.85 -7.77,-6.99 0,-4.14 2.98,-7.25 7.25,-7.25 z m -6.08,53.72 c 0,-9.19 -0.13,-17.34 -0.91,-24.59 2.2,0.39 4.27,0.52 6.47,0.52 2.2,0 4.4,-0.13 6.6,-0.52 -0.91,7.9 -0.91,15.53 -0.91,22.91 0,16.31 0.26,29.38 0.91,39.09 -2.2,-0.39 -4.4,-0.65 -6.6,-0.65 -2.2,0 -4.27,0.26 -6.47,0.65 0.65,-7.64 0.91,-20.06 0.91,-37.41 z"/>
    <path class="cls-1" d="m 118.95,236.7 c 2.85,0.39 5.57,0.52 8.15,0.52 2.72,0 5.31,-0.13 7.9,-0.52 2.72,9.19 5.31,17.09 7.9,23.82 l 10.1,25.5 10.74,-28.74 c 2.33,-6.21 4.53,-13.07 6.6,-20.58 1.94,0.39 3.75,0.52 5.57,0.52 1.82,0 3.75,-0.13 5.57,-0.52 -10.61,19.54 -19.29,40.38 -27.31,62 -1.55,-0.52 -3.24,-0.78 -4.79,-0.78 -1.55,0 -3.11,0.26 -4.66,0.78 -2.72,-10.48 -11.13,-31.19 -25.76,-62 z"/>
    <path class="cls-1" d="m 216.67,300.25 c -19.8,0 -31.84,-12.17 -31.84,-32.49 0,-20.32 12.55,-32.62 31.84,-32.62 19.29,0 31.84,12.43 31.84,32.62 0,20.19 -12.56,32.49 -31.84,32.49 z m 0.13,-60.32 c -11.52,0 -18.64,9.97 -18.64,27.83 0,17.86 7.25,27.7 18.64,27.7 11.39,0 18.38,-9.97 18.38,-27.7 0,-17.73 -6.99,-27.83 -18.38,-27.83 z"/>
    <path class="cls-1" d="m 341.71,300.51 c -31.06,0 -48.93,-17.09 -48.93,-46.21 0,-29.12 19.42,-45.69 50.22,-45.69 13.07,0 24.2,2.72 33.14,7.77 -2.07,3.75 -3.24,7.9 -3.36,12.3 h -2.07 c -6.47,-9.58 -15.66,-14.63 -28.61,-14.63 -20.58,0 -34.82,15.4 -34.82,39.61 0,25.76 13.33,40.9 35.59,40.9 6.99,0 13.72,-1.55 20.32,-4.66 0.26,-4.27 0.39,-8.41 0.39,-12.68 0,-6.08 -0.26,-12.3 -0.91,-18.51 2.33,0.39 4.53,0.65 6.86,0.65 2.59,0 5.18,-0.26 7.77,-0.78 -0.39,6.34 -0.65,12.56 -0.65,18.64 0,6.08 0.26,12.17 0.65,18.12 -12.69,3.5 -24.59,5.18 -35.6,5.18 z"/>
    <path class="cls-1" d="m 392.58,257.67 c 0,-6.34 0,-13.33 -1.04,-20.97 2.33,0.39 4.53,0.52 6.86,0.52 2.2,0 4.53,-0.13 6.73,-0.52 -0.65,4.14 -1.04,8.02 -1.04,11.52 v 1.55 c 5.05,-9.84 11.52,-14.5 20.32,-14.5 0.91,0 1.94,0 2.98,0.13 -0.26,1.94 -0.52,4.01 -0.52,6.08 0,2.07 0.26,4.14 0.52,6.34 -3.75,-0.91 -6.6,-1.42 -8.67,-1.42 -4.01,0 -7.64,1.68 -10.1,4.4 -4.53,5.05 -4.79,10.1 -4.79,15.79 v 13.46 c 0,5.31 0.26,11.52 0.78,18.64 -2.2,-0.39 -4.4,-0.65 -6.6,-0.65 -2.2,0 -4.27,0.26 -6.47,0.65 0.91,-6.6 1.04,-20.32 1.04,-41.03 z"/>
    <path class="cls-1" d="m 464.67,300.25 c -19.8,0 -31.84,-12.17 -31.84,-32.49 0,-20.32 12.55,-32.62 31.84,-32.62 19.29,0 31.84,12.43 31.84,32.62 0,20.19 -12.56,32.49 -31.84,32.49 z m 0.13,-60.32 c -11.52,0 -18.64,9.97 -18.64,27.83 0,17.86 7.25,27.7 18.64,27.7 11.39,0 18.38,-9.97 18.38,-27.7 0,-17.73 -6.99,-27.83 -18.38,-27.83 z"/>
    <path class="cls-1" d="m 562.27,273.98 c 0,8.54 0,16.83 0.91,24.72 -2.07,-0.39 -4.14,-0.65 -6.08,-0.65 -2.07,0 -4.14,0.26 -6.21,0.65 0.13,-3.49 0.39,-7.25 0.52,-11.13 -5.44,8.67 -12.04,12.69 -21.23,12.69 -14.5,0 -20.71,-7.64 -20.71,-23.43 v -18.38 c 0,-6.08 0,-13.33 -0.52,-21.74 2.2,0.39 4.27,0.52 6.47,0.52 2.2,0 4.4,-0.13 6.47,-0.52 -0.91,19.16 -1.16,32.1 -1.16,38.57 0,11.52 4.27,16.96 13.98,16.96 11.91,0 16.44,-8.54 16.44,-25.89 0,-10.1 -0.26,-20.06 -0.65,-29.64 2.2,0.39 4.27,0.52 6.34,0.52 2.07,0 4.27,-0.13 6.34,-0.52 -0.78,8.15 -0.91,20.58 -0.91,37.28 z"/>
    <path class="cls-1" d="m 580.52,297.92 c 0,-29.64 -0.26,-49.96 -0.78,-61.22 2.07,0.39 4.14,0.52 6.21,0.52 1.94,0 4.01,-0.13 6.08,-0.52 -0.52,3.88 -0.78,7.51 -0.91,11.39 4.92,-8.93 11.52,-12.94 21.23,-12.94 15.92,0 26.28,12.3 26.28,32.88 0,20.58 -10.61,32.23 -26.02,32.23 -9.84,0 -16.44,-3.37 -20.84,-11 v 18.9 c 0,9.58 0,18.12 0.78,25.89 -2.07,-0.39 -4.27,-0.65 -6.34,-0.65 -2.2,0 -4.27,0.26 -6.47,0.65 0.78,-12.81 0.78,-24.85 0.78,-36.11 z m 27.83,-55.53 c -10.61,0 -17.34,9.19 -17.34,25.5 0,16.31 6.73,26.15 17.34,26.15 10.61,0 17.09,-9.45 17.09,-25.89 0,-16.44 -6.6,-25.76 -17.09,-25.76 z"/>
  </g>
</svg>
